<svg width="443" height="450" viewBox="0 0 443 450" fill="none" xmlns="http://www.w3.org/2000/svg">
<circle cx="222" cy="225" r="200" fill="#01B0CB" fill-opacity="0.2"/>
<path d="M279.024 118.076C303.732 137.674 319.149 165.554 323.251 196.685C323.376 198.339 323.473 199.994 323.546 201.651C323.607 202.63 323.667 203.609 323.73 204.617C324.463 226.6 318.934 249.444 306.941 268.012C305.552 270.517 305.552 270.517 306.741 272.809C308.317 275.397 310.018 277.382 312.128 279.562C313.293 280.776 313.293 280.776 314.481 282.015C315.724 283.295 315.724 283.295 316.992 284.601C318.714 286.394 320.435 288.187 322.156 289.981C322.999 290.858 323.842 291.736 324.711 292.639C328.855 296.97 332.911 301.378 336.957 305.799C339.185 308.21 341.431 310.587 343.713 312.946C344.317 313.579 344.922 314.212 345.545 314.864C346.705 316.076 347.874 317.28 349.053 318.474C352.384 321.981 353 322.77 353 327.828C351.419 329.838 351.419 329.838 349.208 331.831C347.996 332.939 347.996 332.939 346.759 334.069C345.903 334.829 345.046 335.589 344.164 336.371C343.344 337.118 342.523 337.864 341.679 338.633C336.78 343.072 331.798 347.412 326.779 351.715C324.695 353.504 324.695 353.504 322.83 355.521C321.189 357.036 321.189 357.036 318.911 356.986C315.658 355.492 314.017 353.533 311.69 350.829C310.303 349.246 310.303 349.246 308.888 347.63C307.893 346.493 306.898 345.356 305.873 344.185C303.73 341.833 301.562 339.504 299.393 337.175C293.655 330.983 287.973 324.741 282.31 318.482C280.322 316.291 278.334 314.1 276.345 311.91C274.799 310.206 273.253 308.502 271.706 306.799C266.529 308.357 262.083 310.426 257.348 313.005C250.64 316.484 243.901 318.781 236.582 320.672C235.212 321.028 235.212 321.028 233.813 321.39C202.811 328.964 171.458 322.837 144.287 306.975C139.236 303.858 134.764 300.192 130.326 296.284C129.511 295.627 128.695 294.971 127.855 294.294C106.652 276.955 93.663 249.478 90.2686 222.68C88.5709 190.567 94.6344 159.446 116.663 134.808C119.565 131.692 122.569 128.689 125.614 125.711C126.57 124.75 127.527 123.789 128.513 122.799C139.516 112.324 152.348 105.343 166.555 100.081C167.445 99.7509 168.335 99.4209 169.252 99.0809C206.288 86.1278 248.432 94.5179 279.024 118.076ZM138.574 132.721C137.621 133.433 136.669 134.145 135.688 134.879C118.334 149.4 106.864 173.743 104.407 195.809C102.765 226.81 109.266 254.141 130.547 277.737C146.206 294.391 165.75 304.53 188.057 309.135C189.312 309.4 189.312 309.4 190.592 309.669C192.908 310.046 195.136 310.207 197.482 310.304C198.832 310.364 200.182 310.424 201.573 310.486C232.453 311.402 258.812 300.101 281.205 279.197C300.213 259.845 309.927 233.169 309.587 206.338C308.175 178.654 296.89 152.609 276.433 133.506C235.648 99.8942 179.436 98.1213 138.574 132.721Z" fill="#01B0CB"/>
<path d="M165.355 147C174.269 154.797 182.401 163.261 190.539 171.946C191.839 173.328 193.14 174.709 194.479 176.133C197.661 179.514 200.839 182.898 204.013 186.286C212.927 178.488 221.059 170.025 229.197 161.339C230.497 159.958 231.797 158.576 233.137 157.153C236.319 153.772 239.496 150.388 242.671 147C248.073 149.665 251.511 152.874 255.681 157.411C256.869 158.695 258.058 159.979 259.282 161.302C260.179 162.287 261.076 163.271 262 164.286C254.622 173.706 246.615 182.301 238.396 190.902C237.089 192.276 235.782 193.651 234.435 195.067C231.237 198.429 228.034 201.788 224.829 205.143C227.185 211.285 231.172 215.394 235.574 219.949C236.706 221.139 236.706 221.139 237.861 222.353C240.263 224.874 242.675 227.383 245.087 229.893C246.722 231.605 248.356 233.317 249.989 235.031C253.985 239.219 257.99 243.398 262 247.571C260.604 249.31 259.206 251.047 257.807 252.783C257.028 253.75 256.25 254.718 255.448 255.714C252.333 259.471 249.035 262.951 245.645 266.429C239.833 263.939 235.945 259.725 231.636 255.073C230.262 253.613 228.888 252.153 227.473 250.649C225.742 248.791 224.011 246.932 222.227 245.018C216.707 239.119 211.187 233.22 205.5 227.143C192.743 240.626 179.986 254.109 166.842 268C160.556 262.305 154.711 256.934 149 250.714C151.309 244.848 154.722 241.183 158.99 236.762C160.375 235.314 161.761 233.867 163.189 232.376C164.654 230.86 166.119 229.345 167.586 227.83C170.456 224.854 173.319 221.872 176.181 218.887C177.455 217.569 178.729 216.251 180.041 214.893C183.396 211.415 183.396 211.415 186.171 206.714C185.045 205.549 183.919 204.383 182.759 203.183C178.591 198.863 174.438 194.528 170.29 190.189C168.491 188.311 166.688 186.438 164.881 184.569C162.287 181.885 159.708 179.185 157.131 176.483C156.318 175.648 155.505 174.813 154.667 173.952C152.692 171.865 150.834 169.655 149 167.429C149 162.714 149 162.714 151.445 160.013C152.509 159.09 153.573 158.166 154.669 157.214C158.4 153.938 161.951 150.651 165.355 147Z" fill="#01B0CB"/>
</svg>
