<svg width="489" height="430" viewBox="0 0 489 430" fill="none" xmlns="http://www.w3.org/2000/svg">
<path d="M124.454 116.781C141.969 117.007 159.485 117.234 177.531 117.467C177.463 122.739 177.395 128.01 177.325 133.441C165.648 133.29 153.971 133.139 141.94 132.984C141.779 145.444 141.619 157.904 141.453 170.741C208.33 171.606 275.206 172.471 344.109 173.362C344.27 160.902 344.431 148.442 344.597 135.604C332.92 135.453 321.243 135.302 309.212 135.147C309.28 129.875 309.348 124.604 309.418 119.173C326.934 119.399 344.449 119.626 362.495 119.859C362.161 145.737 361.827 171.616 361.483 198.278C355.282 197.076 349.77 195.643 343.847 193.693C343.866 192.255 343.884 190.817 343.903 189.336C277.027 188.471 210.15 187.607 141.247 186.716C140.802 221.22 140.357 255.725 139.898 291.275C172.275 291.693 204.652 292.112 238.01 292.543C244.274 305.696 244.274 305.696 244.237 308.601C203.899 308.079 163.56 307.558 122 307.02C122.81 244.241 123.62 181.462 124.454 116.781Z" fill="#01B0CB"/>
<path d="M321.767 198.491C323.236 198.517 324.706 198.543 326.219 198.57C344.31 199.223 359.109 204.656 372.517 215.85C373.985 217.06 373.985 217.06 375.483 218.294C390.353 231.279 397.768 247.332 398.372 266.031C398.37 284.001 393.401 299.116 380.912 313.273C379.699 314.755 378.485 316.237 377.235 317.764C363.624 330.284 346.125 338.127 326.64 339.062C302.417 339.157 282.323 333.936 264.204 318.606C248.348 303.333 242.232 285.552 242.606 264.989C243.365 245.15 251.9 230.502 266.843 216.299C282.403 203.347 300.856 198.084 321.767 198.491ZM275.827 229.125C271.973 233.196 268.904 237.4 266.008 242.07C265.329 243.149 264.649 244.228 263.949 245.339C256.955 258.202 256.826 273.255 261.509 286.856C268.053 301.26 279.709 313.073 295.279 319.893C311.957 325.757 328.827 326.352 345.434 320.077C361.765 312.653 374.653 300.276 380.604 284.572C384.147 268.604 382.416 252.423 372.961 238.426C363.524 226.372 350.356 216.474 333.935 213.899C311.443 212.263 292.799 214.369 275.827 229.125Z" fill="#01B0CB"/>
<path d="M296.485 238.478C300.196 239.728 301.917 241.032 304.62 243.619C305.46 244.411 306.3 245.204 307.166 246.02C308.022 246.85 308.878 247.681 309.76 248.536C310.641 249.372 311.522 250.208 312.429 251.07C314.596 253.13 316.748 255.203 318.897 257.278C325.479 255.025 329.863 250.828 334.721 246.408C335.546 245.67 336.37 244.931 337.22 244.171C339.243 242.357 341.255 240.535 343.266 238.711C347.935 240.332 350.918 241.393 354.45 244.666C353.848 249.29 352.014 251.639 348.331 254.776C347.455 255.533 346.58 256.289 345.678 257.068C344.761 257.839 343.844 258.61 342.899 259.404C341.975 260.197 341.051 260.99 340.1 261.807C337.824 263.759 335.534 265.696 333.241 267.631C336.085 274.47 342.164 278.855 347.955 283.701C350.319 285.78 350.319 285.78 353.869 289.684C353.653 293.569 352.587 294.985 350.041 298.077C347.304 299.767 347.304 299.767 344.226 299.355C340.514 298.105 338.794 296.801 336.09 294.215C335.25 293.422 334.41 292.629 333.545 291.813C332.689 290.983 331.833 290.152 330.951 289.297C330.07 288.461 329.189 287.625 328.281 286.763C326.114 284.703 323.963 282.63 321.814 280.555C314.247 283.104 309.406 288.582 304.055 293.797C301.759 295.927 301.759 295.927 297.444 299.122C293.142 298.916 291.57 297.95 288.139 295.643C286.261 293.167 286.261 293.167 286.708 290.389C288.083 287.041 289.522 285.491 292.38 283.057C293.693 281.922 293.693 281.922 295.033 280.765C295.95 279.994 296.867 279.223 297.812 278.429C298.736 277.636 299.659 276.843 300.611 276.026C302.887 274.074 305.177 272.137 307.469 270.202C304.626 263.363 298.546 258.978 292.756 254.132C290.392 252.053 290.392 252.053 286.842 248.149C287.058 244.264 288.124 242.848 290.67 239.756C293.406 238.067 293.406 238.067 296.485 238.478Z" fill="#01B0CB"/>
<path d="M280.823 91.2064C287.192 91.2887 293.562 91.3711 300.124 91.4559C299.864 111.584 299.605 131.711 299.337 152.449C292.968 152.366 286.599 152.284 280.036 152.199C280.296 132.072 280.556 111.944 280.823 91.2064Z" fill="#01B0CB"/>
<path d="M187.537 90C193.376 90.0755 199.214 90.151 205.229 90.2288C204.97 110.356 204.71 130.484 204.442 151.222C198.604 151.146 192.766 151.071 186.75 150.993C187.01 130.865 187.27 110.738 187.537 90Z" fill="#01B0CB"/>
<path d="M216.132 117.966C234.178 118.2 252.224 118.433 270.817 118.673C270.749 123.945 270.681 129.216 270.611 134.648C252.565 134.414 234.519 134.181 215.926 133.941C215.994 128.669 216.062 123.398 216.132 117.966Z" fill="#01B0CB"/>
<circle cx="245" cy="215" r="200" fill="#01B0CB" fill-opacity="0.2"/>
</svg>
