<svg width="215" height="205" viewBox="0 0 215 205" fill="none" xmlns="http://www.w3.org/2000/svg">
<circle cx="108" cy="103" r="89" fill="#01B0CB" fill-opacity="0.2"/>
<path d="M152.153 46C148.833 46 145.569 47.3016 143.064 49.8008L100.066 92.6416L99.1108 93.5962L98.8503 94.9542L95.8553 110.14L94.5097 116.509L100.877 115.164L116.07 112.17L117.428 111.91L118.383 110.956L161.243 67.9758C163.038 66.1753 164.259 63.884 164.754 61.3906C165.249 58.8973 164.994 56.3134 164.022 53.9644C163.05 51.6155 161.404 49.6066 159.292 48.1909C157.18 46.7751 154.696 46.0158 152.153 46.0087V46ZM152.153 54.4172C153.173 54.4172 154.167 54.9378 155.14 55.9054C157.076 57.8405 157.076 59.9317 155.14 61.8712L113.088 103.896L105.622 105.389L107.119 97.9262L149.171 55.8924C150.139 54.9248 151.133 54.4042 152.153 54.4042V54.4172ZM61 63.2249V150H147.813V92.7805L139.131 101.458V141.322H69.6813V71.9024H109.563L118.244 63.2249H61Z" fill="#01B0CB"/>
</svg>
